<?xml version="1.0" encoding="UTF-8" ?>
<svg version="1.1" width="1024" height="1024" xmlns="http://www.w3.org/2000/svg" shape-rendering="crispEdges">
<rect x="0" y="0" width="1024" height="64" fill="#59C135" />
<rect x="0" y="64" width="64" height="960" fill="#59C135" />
<rect x="64" y="64" width="320" height="32" fill="#BB7547" />
<rect x="384" y="64" width="64" height="96" fill="#59C135" />
<rect x="448" y="64" width="320" height="32" fill="#BB7547" />
<rect x="768" y="64" width="256" height="96" fill="#59C135" />
<rect x="64" y="96" width="320" height="64" fill="#59C135" />
<rect x="448" y="96" width="320" height="64" fill="#59C135" />
<rect x="64" y="160" width="224" height="96" fill="#59C135" />
<rect x="288" y="160" width="320" height="32" fill="#BB7547" />
<rect x="608" y="160" width="64" height="96" fill="#59C135" />
<rect x="672" y="160" width="320" height="32" fill="#BB7547" />
<rect x="992" y="160" width="32" height="864" fill="#59C135" />
<rect x="288" y="192" width="320" height="64" fill="#59C135" />
<rect x="672" y="192" width="320" height="64" fill="#59C135" />
<rect x="64" y="256" width="320" height="32" fill="#BB7547" />
<rect x="384" y="256" width="64" height="96" fill="#59C135" />
<rect x="448" y="256" width="320" height="32" fill="#BB7547" />
<rect x="768" y="256" width="224" height="96" fill="#59C135" />
<rect x="64" y="288" width="320" height="64" fill="#59C135" />
<rect x="448" y="288" width="320" height="64" fill="#59C135" />
<rect x="64" y="352" width="224" height="96" fill="#59C135" />
<rect x="288" y="352" width="320" height="32" fill="#BB7547" />
<rect x="608" y="352" width="64" height="96" fill="#59C135" />
<rect x="672" y="352" width="320" height="32" fill="#BB7547" />
<rect x="288" y="384" width="320" height="64" fill="#59C135" />
<rect x="672" y="384" width="320" height="64" fill="#59C135" />
<rect x="64" y="448" width="320" height="32" fill="#BB7547" />
<rect x="384" y="448" width="64" height="96" fill="#59C135" />
<rect x="448" y="448" width="320" height="32" fill="#BB7547" />
<rect x="768" y="448" width="224" height="96" fill="#59C135" />
<rect x="64" y="480" width="320" height="64" fill="#59C135" />
<rect x="448" y="480" width="320" height="64" fill="#59C135" />
<rect x="64" y="544" width="224" height="96" fill="#59C135" />
<rect x="288" y="544" width="320" height="32" fill="#BB7547" />
<rect x="608" y="544" width="64" height="96" fill="#59C135" />
<rect x="672" y="544" width="320" height="32" fill="#BB7547" />
<rect x="288" y="576" width="320" height="64" fill="#59C135" />
<rect x="672" y="576" width="320" height="64" fill="#59C135" />
<rect x="64" y="640" width="320" height="32" fill="#BB7547" />
<rect x="384" y="640" width="64" height="96" fill="#59C135" />
<rect x="448" y="640" width="320" height="32" fill="#BB7547" />
<rect x="768" y="640" width="224" height="96" fill="#59C135" />
<rect x="64" y="672" width="320" height="64" fill="#59C135" />
<rect x="448" y="672" width="320" height="64" fill="#59C135" />
<rect x="64" y="736" width="224" height="96" fill="#59C135" />
<rect x="288" y="736" width="320" height="32" fill="#BB7547" />
<rect x="608" y="736" width="64" height="96" fill="#59C135" />
<rect x="672" y="736" width="320" height="32" fill="#BB7547" />
<rect x="288" y="768" width="320" height="64" fill="#59C135" />
<rect x="672" y="768" width="320" height="64" fill="#59C135" />
<rect x="64" y="832" width="320" height="32" fill="#BB7547" />
<rect x="384" y="832" width="64" height="96" fill="#59C135" />
<rect x="448" y="832" width="320" height="32" fill="#BB7547" />
<rect x="768" y="832" width="224" height="96" fill="#59C135" />
<rect x="64" y="864" width="320" height="64" fill="#59C135" />
<rect x="448" y="864" width="320" height="64" fill="#59C135" />
<rect x="64" y="928" width="224" height="96" fill="#59C135" />
<rect x="288" y="928" width="320" height="32" fill="#BB7547" />
<rect x="608" y="928" width="64" height="96" fill="#59C135" />
<rect x="672" y="928" width="320" height="32" fill="#BB7547" />
<rect x="288" y="960" width="320" height="64" fill="#59C135" />
<rect x="672" y="960" width="320" height="64" fill="#59C135" />
</svg>